# xmcd CD database file
#
# Track frame offsets:
#	150
#	21300
#	42835
#	59710
#	81292
#	103635
#	122160
#	135690
#	146892
#	171032
#	185538
#	201685
#
# Disc length: 2984 seconds
#
# Revision: 0
# Processed by: cddbd v1.5.1PL0 Copyright (c) Steve Scherf et al.
# Submitted via: CDex 1.51
#
DISCID=bb0ba60c
DTITLE=Haens'che Weiss - Vali Mayer - Just Play
DYEAR=1998
DGENRE=Jazz
TTITLE0=Myriam - Vali Mayer
TTITLE1=Fall of Leaves - Haens'che Weiss
TTITLE2=Dans ma Roulotte - Haens'che Weiss
TTITLE3=Tenderly - Walter Gross
TTITLE4=Minor Swing - Django Reinhardt
TTITLE5=Flute Blues - Bobby Jaspar
TTITLE6=Li'l Darlin - Neal Hefti
TTITLE7=Limehouse Blues - Phil Braham
TTITLE8=La Puerta - Luis Demetrio
TTITLE9=Historia de un amor - Carlos Almaran
TTITLE10=Sweet Georgia Brown - Pinkard/Bernie/Casey
TTITLE11=Bei mir bist du scheijn - Trad./Haens'che Weiss/Vali Mayer
EXTD=YEAR: 1998
EXTT0=
EXTT1=
EXTT2=
EXTT3=
EXTT4=
EXTT5=
EXTT6=
EXTT7=
EXTT8=
EXTT9=
EXTT10=
EXTT11=
PLAYORDER=
